<?xml version="1.0" standalone="no"?>
<!DOCTYPE svg PUBLIC "-//W3C//DTD SVG 20010904//EN"
 "http://www.w3.org/TR/2001/REC-SVG-20010904/DTD/svg10.dtd">
<svg version="1.0" xmlns="http://www.w3.org/2000/svg"
 width="16.000000pt" height="16.000000pt" viewBox="0 0 16.000000 16.000000"
 preserveAspectRatio="xMidYMid meet">
<metadata>
Created by potrace 1.11, written by Peter Selinger 2001-2013
</metadata>
<g transform="translate(0.000000,16.000000) scale(0.005735,-0.005735)"
fill="#000000" stroke="none">
<path d="M1095 2047 c-120 -204 -220 -375 -222 -379 -2 -4 16 -5 39 -2 39 5
164 -8 209 -22 12 -3 38 21 85 78 76 92 215 235 282 290 l43 36 -106 184 c-59
100 -108 184 -109 185 -1 2 -101 -165 -221 -370z"/>
<path d="M1441 1904 c-84 -80 -170 -176 -239 -265 -11 -15 -6 -20 35 -44 26
-15 58 -36 69 -47 l22 -19 45 83 c25 46 84 141 130 212 81 124 84 131 70 153
-8 13 -19 23 -23 23 -4 0 -53 -43 -109 -96z"/>
<path d="M1533 1743 c-45 -87 -93 -186 -106 -220 l-25 -63 38 -73 c21 -40 41
-92 45 -115 l7 -42 254 0 c140 0 254 3 254 6 0 6 -369 644 -380 657 -4 4 -43
-63 -87 -150z"/>
<path d="M731 1430 c-61 -104 -111 -192 -111 -195 0 -3 57 -5 128 -5 l127 0
25 47 c14 26 66 109 116 185 l90 137 -48 11 c-27 5 -86 10 -132 10 l-84 0
-111 -190z"/>
<path d="M1138 1547 c-21 -28 -108 -165 -177 -279 l-23 -38 130 0 129 0 55
125 56 125 -34 30 c-19 16 -52 39 -73 50 l-39 19 -24 -32z"/>
<path d="M1350 1322 c-13 -37 -25 -73 -28 -79 -3 -10 12 -13 57 -13 34 0 61 4
61 8 0 20 -43 132 -54 141 -10 8 -18 -5 -36 -57z"/>
<path d="M290 898 c-80 -138 -162 -269 -182 -291 -21 -22 -38 -42 -38 -44 0
-8 160 -2 165 7 3 6 -3 10 -13 10 -11 0 -25 7 -32 15 -10 12 -6 29 23 90 l36
75 95 0 95 0 7 -37 c4 -21 8 -58 8 -83 1 -42 -1 -46 -31 -55 -18 -5 -33 -12
-33 -16 0 -11 234 -16 241 -5 4 5 29 3 57 -3 99 -24 172 20 172 105 0 35 -9
56 -50 116 -27 40 -50 84 -50 99 0 77 101 59 117 -21 3 -17 9 -30 14 -30 9 0
13 16 23 80 l6 35 -86 3 c-83 2 -86 1 -115 -27 -44 -45 -40 -82 21 -174 50
-76 59 -111 40 -148 -8 -14 -21 -19 -49 -19 -43 0 -57 12 -76 67 -19 54 -32
51 -37 -7 -3 -28 -8 -53 -11 -56 -9 -10 -45 6 -51 22 -3 9 -24 124 -46 257
-48 292 -47 287 -63 287 -6 0 -77 -113 -157 -252z m125 21 c23 -127 27 -119
-61 -119 -42 0 -74 4 -72 9 6 19 113 199 116 197 1 -2 9 -41 17 -87z"/>
<path d="M1992 1128 c-19 -19 -15 -66 8 -78 42 -23 82 25 55 66 -17 26 -44 31
-63 12z"/>
<path d="M2176 1001 c-21 -21 -56 -47 -77 -56 -48 -22 -49 -33 -5 -37 l33 -3
-43 -159 c-23 -87 -40 -165 -37 -172 16 -42 91 -20 136 40 39 50 33 68 -8 24
-33 -37 -55 -48 -55 -28 0 18 72 285 79 292 14 15 102 12 118 -4 18 -18 55
-139 79 -259 l16 -80 -26 -38 c-15 -21 -39 -50 -55 -65 -29 -28 -30 -28 -60
-10 -25 15 -32 15 -45 5 -36 -30 -7 -78 40 -67 82 21 271 287 329 464 16 49
16 54 1 78 -13 18 -24 24 -44 22 -37 -4 -41 -35 -8 -65 19 -18 25 -31 21 -46
-8 -30 -70 -157 -88 -181 -14 -19 -15 -17 -21 25 -9 58 -32 140 -58 211 l-20
58 -86 -7 -85 -6 6 29 c4 16 9 39 13 52 9 32 -7 27 -50 -17z"/>
<path d="M1003 926 c-23 -20 -28 -32 -28 -68 1 -35 10 -57 48 -114 40 -60 48
-78 45 -110 -8 -95 -138 -61 -138 36 0 13 -5 20 -12 18 -13 -5 -34 -126 -24
-136 3 -3 12 0 19 6 10 9 28 9 68 0 65 -13 117 4 145 48 33 50 24 94 -34 178
-52 74 -63 111 -40 134 33 33 108 -11 108 -63 0 -26 18 -35 25 -12 2 6 6 32 9
57 l6 45 -84 3 c-77 2 -87 0 -113 -22z"/>
<path d="M1263 937 c-55 -10 -72 -27 -28 -27 33 0 32 -17 -5 -155 -36 -134
-38 -180 -9 -195 11 -7 32 -9 45 -6 34 9 97 68 135 127 17 27 33 48 35 46 2
-1 -3 -31 -12 -66 -8 -35 -12 -72 -9 -82 8 -23 36 -32 67 -20 30 11 100 90 92
103 -4 6 -20 -6 -36 -26 -33 -40 -48 -45 -48 -16 0 15 48 207 76 303 4 14 -1
17 -29 17 -34 0 -36 -2 -62 -69 -46 -121 -157 -279 -188 -268 -21 7 -18 32 21
191 44 174 48 161 -45 143z"/>
<path d="M1653 938 c-57 -10 -72 -28 -23 -28 40 0 39 -12 -10 -193 -22 -80
-40 -148 -40 -151 0 -3 15 -6 33 -6 32 0 34 2 56 73 27 84 94 217 122 243 18
16 20 16 38 0 25 -22 53 -17 66 12 11 25 45 30 45 6 0 -9 -16 -76 -35 -150
-22 -83 -33 -142 -29 -158 14 -56 86 -38 139 34 33 45 23 52 -18 12 -36 -35
-61 -42 -53 -14 34 116 87 325 83 329 -3 2 -31 0 -62 -6 -38 -7 -63 -7 -75 -1
-44 24 -91 -3 -141 -80 -18 -28 -34 -49 -35 -47 -2 2 3 27 11 57 24 89 27 86
-72 68z"/>
<path d="M2662 943 c-34 -14 -33 -82 2 -105 20 -14 63 -8 79 10 48 53 -12 123
-81 95z m82 -25 c7 -11 7 -26 0 -45 -13 -39 -66 -45 -89 -10 -8 13 -13 32 -9
41 11 28 24 18 24 -19 0 -35 20 -51 20 -17 1 16 1 16 14 0 15 -20 31 -25 20
-6 -5 7 -7 25 -6 40 2 22 -2 27 -25 31 -22 4 -21 5 6 3 20 0 38 -8 45 -18z
m-39 -8 c3 -5 1 -10 -4 -10 -6 0 -11 5 -11 10 0 6 2 10 4 10 3 0 8 -4 11 -10z"/>
</g>
</svg>
